<?xml version="1.0" encoding="UTF-8" ?>
<!DOCTYPE svg PUBLIC "-//W3C//DTD SVG 1.1//EN" "http://www.w3.org/Graphics/SVG/1.1/DTD/svg11.dtd">
<svg width="417pt" height="348pt" viewBox="0 0 417 348" version="1.1" xmlns="http://www.w3.org/2000/svg">
<g id="#2dd99cff">
</g>
<g id="#132a3aff">
<path fill="#132a3a" opacity="1.00" d=" M 205.35 8.46 C 220.33 6.45 235.00 18.15 237.05 32.98 C 238.16 43.38 237.09 53.88 237.66 64.30 C 243.39 65.37 250.28 63.16 255.35 65.34 C 255.60 98.00 255.47 130.68 255.47 163.35 C 224.13 163.63 192.77 163.57 161.43 163.39 C 161.04 130.46 161.19 97.49 161.37 64.55 C 167.25 64.21 173.16 64.93 179.02 64.18 C 179.38 54.12 178.92 44.03 179.24 33.96 C 180.64 20.83 192.07 9.34 205.35 8.46 M 208.24 14.45 C 195.84 14.17 184.38 25.47 185.19 37.98 C 185.36 46.74 185.00 55.50 185.31 64.26 C 200.60 64.73 215.95 64.59 231.25 64.29 C 231.42 55.20 231.34 46.10 231.27 37.01 C 231.16 24.98 220.37 14.15 208.24 14.45 M 169.34 79.36 C 165.06 100.70 168.76 125.36 167.51 147.95 C 165.95 152.42 173.59 154.41 173.51 149.69 C 173.75 127.15 173.76 104.58 173.50 82.04 C 173.96 79.62 171.26 78.71 169.34 79.36 Z" />
<path fill="#132a3a" opacity="1.00" d=" M 108.30 76.54 C 123.77 76.44 139.26 76.49 154.74 76.52 C 154.96 78.74 154.94 80.99 154.74 83.21 C 142.59 83.62 130.42 83.04 118.28 83.46 C 115.71 83.74 116.17 87.10 115.93 88.96 C 115.93 124.66 115.94 160.36 115.92 196.05 C 115.59 199.03 118.43 200.32 120.98 199.95 C 178.99 199.92 237.00 200.08 295.00 200.04 C 297.38 200.30 300.77 199.38 300.49 196.38 C 300.61 160.02 300.53 123.66 300.53 87.30 C 300.75 85.52 299.68 83.54 297.76 83.42 C 285.84 82.96 273.84 83.77 261.94 83.05 C 261.03 81.09 261.62 78.77 261.64 76.68 C 276.99 76.31 292.37 76.55 307.73 76.53 C 309.54 76.27 309.26 78.79 309.31 79.93 C 309.15 121.88 309.35 163.83 309.24 205.77 C 241.99 206.01 174.70 206.31 107.45 205.79 C 107.79 162.94 106.12 118.25 108.30 76.54 Z" />
<path fill="#132a3a" opacity="1.00" d=" M 124.33 89.50 C 134.45 89.57 144.60 89.23 154.71 89.69 C 154.96 115.13 154.63 140.59 154.92 166.03 C 154.48 169.01 157.56 170.00 159.93 169.68 C 191.98 169.75 224.03 169.76 256.08 169.69 C 258.39 169.90 262.01 169.11 261.47 166.05 C 261.71 140.59 261.33 115.12 261.67 89.67 C 272.51 89.43 283.45 89.20 294.28 89.79 C 294.48 124.35 294.38 158.92 294.34 193.48 C 237.03 193.96 179.68 193.75 122.36 193.58 C 121.68 160.74 122.24 127.84 122.08 94.98 C 122.49 92.95 120.89 88.70 124.33 89.50 M 282.49 164.57 C 275.29 171.31 268.22 178.25 261.45 185.43 C 258.43 187.96 263.08 192.79 265.67 189.74 C 272.59 182.97 279.38 176.06 286.13 169.13 C 289.26 166.67 285.58 162.43 282.49 164.57 M 283.16 179.19 C 280.57 181.87 275.81 184.40 276.46 188.66 C 281.11 195.32 294.60 176.47 283.16 179.19 Z" />
<path fill="#132a3a" opacity="1.00" d=" M 95.26 212.46 C 170.79 212.26 246.35 212.13 321.87 212.43 C 320.75 219.88 313.43 225.22 306.03 224.72 C 240.33 224.68 174.63 224.85 108.93 224.67 C 102.16 225.31 93.90 217.64 95.26 212.46 M 197.20 216.27 C 194.41 225.76 212.84 220.81 219.04 221.10 C 222.56 211.46 203.35 216.32 197.20 216.27 Z" />
</g>
<g id="#fcfdfeff">
<path fill="#fcfdfe" opacity="1.00" d=" M 231.50 270.36 C 234.41 269.31 240.16 268.94 243.41 270.59 C 243.74 276.81 243.26 283.06 243.63 289.29 C 250.41 283.14 262.46 281.39 268.23 289.78 C 274.21 300.56 270.62 313.60 271.37 325.36 C 252.26 331.06 262.18 308.57 258.36 297.65 C 254.41 290.85 244.21 296.52 243.56 302.95 C 242.89 313.51 248.01 330.73 231.48 325.39 C 231.05 307.08 231.01 288.67 231.50 270.36 Z" />
<path fill="#fcfdfe" opacity="1.00" d=" M 25.49 275.27 C 33.14 272.52 40.60 275.12 37.75 284.36 C 45.69 282.64 48.30 286.85 46.32 294.43 C 33.39 289.49 33.57 319.09 45.88 315.11 C 52.35 327.55 32.35 329.52 27.23 320.92 C 23.16 312.82 27.28 302.65 24.34 294.79 C 18.15 296.42 18.86 288.13 20.69 284.84 C 27.02 285.75 25.14 279.38 25.49 275.27 Z" />
<path fill="#fcfdfe" opacity="1.00" d=" M 203.45 275.25 C 206.02 274.87 215.12 272.61 215.53 276.99 C 212.18 288.41 230.01 280.95 223.91 294.53 C 211.47 291.36 215.54 307.12 216.46 314.45 C 224.18 312.99 225.70 317.34 224.32 324.26 C 219.61 326.57 213.28 326.31 208.37 324.51 C 199.24 317.33 205.53 304.31 202.39 294.81 C 195.40 296.54 197.43 289.12 197.59 284.72 C 204.07 286.33 203.20 279.73 203.45 275.25 Z" />
<path fill="#fcfdfe" opacity="1.00" d=" M 68.37 284.53 C 82.69 280.18 98.26 294.20 94.63 309.04 C 92.34 328.14 63.09 332.25 54.64 315.37 C 47.86 303.78 54.92 287.03 68.37 284.53 M 70.23 295.25 C 58.72 299.03 64.70 319.74 76.78 314.79 C 88.67 310.98 82.40 290.35 70.23 295.25 Z" />
<path fill="#fcfdfe" opacity="1.00" d=" M 115.36 284.55 C 125.40 284.10 133.43 285.77 143.66 284.72 C 143.42 299.81 144.40 315.07 143.13 330.06 C 139.52 343.32 107.02 348.59 111.41 330.29 C 118.31 331.40 131.58 334.11 131.53 323.44 C 125.24 325.64 118.13 327.91 111.77 324.11 C 95.58 316.61 97.60 288.71 115.36 284.55 M 118.32 295.49 C 108.22 299.67 112.71 317.56 124.04 315.27 C 137.61 313.42 131.89 288.76 118.32 295.49 Z" />
<path fill="#fcfdfe" opacity="1.00" d=" M 166.37 284.61 C 180.90 279.57 195.96 294.62 191.70 309.23 C 182.50 309.67 173.28 309.04 164.08 309.46 C 166.85 322.82 185.86 307.57 188.62 320.64 C 177.86 331.07 155.99 326.49 151.58 311.56 C 147.74 300.37 154.89 287.38 166.37 284.61 M 171.36 294.48 C 168.22 294.68 164.20 296.90 164.21 300.44 C 169.41 300.55 174.62 300.60 179.83 300.42 C 180.33 296.05 174.92 294.25 171.36 294.48 Z" />
<path fill="#fcfdfe" opacity="1.00" d=" M 294.30 284.39 C 308.47 279.55 323.47 295.16 318.78 308.75 C 309.87 310.27 300.29 308.80 291.13 309.45 C 294.81 322.60 311.96 307.98 316.75 320.13 C 306.33 330.31 286.14 327.56 279.84 314.05 C 274.22 302.33 281.39 287.01 294.30 284.39 M 298.36 294.55 C 295.33 294.94 291.42 296.90 291.32 300.38 C 296.77 300.59 302.24 300.57 307.70 300.43 C 307.34 296.19 302.22 293.90 298.36 294.55 Z" />
<path fill="#fcfdfe" opacity="1.00" d=" M 336.27 284.50 C 340.23 283.14 337.16 291.70 340.86 287.92 C 348.32 280.40 360.07 284.38 365.95 291.56 C 372.03 283.55 384.98 280.67 392.64 288.41 C 399.98 297.60 396.56 310.19 397.44 321.00 C 398.88 328.31 389.71 324.87 385.46 325.39 C 384.44 316.62 386.57 307.54 384.14 298.96 C 381.84 292.51 371.74 293.70 369.36 299.52 C 365.11 307.27 370.84 319.87 366.12 325.48 C 343.89 331.23 366.57 295.64 346.97 294.65 C 328.21 297.82 350.45 332.85 326.56 325.37 C 326.10 311.80 326.18 298.16 326.56 284.59 C 329.79 284.43 333.03 284.48 336.27 284.50 Z" />
</g>
</svg>
